<svg width="32" height="32" viewBox="0 0 32 32" fill="none" xmlns="http://www.w3.org/2000/svg">
<path d="M25.8 13.3867C25.3521 11.117 24.1301 9.07316 22.3428 7.60434C20.5554 6.13552 18.3135 5.33282 16 5.33334C12.1467 5.33334 8.8 7.52001 7.13333 10.72C5.17365 10.9318 3.36134 11.8603 2.04465 13.3271C0.727961 14.7939 -0.000228936 16.6956 5.39903e-08 18.6667C5.39903e-08 23.08 3.58667 26.6667 8 26.6667H25.3333C29.0133 26.6667 32 23.68 32 20C32 16.48 29.2667 13.6267 25.8 13.3867ZM25.3333 24H8C5.05333 24 2.66667 21.6133 2.66667 18.6667C2.66667 15.9333 4.70667 13.6533 7.41333 13.3733L8.84 13.2267L9.50667 11.96C10.1198 10.7664 11.0505 9.7651 12.1962 9.0664C13.3418 8.36771 14.6581 7.9987 16 8.00001C19.4933 8.00001 22.5067 10.48 23.1867 13.9067L23.5867 15.9067L25.6267 16.0533C26.629 16.1208 27.5686 16.5653 28.2563 17.2976C28.944 18.0299 29.3289 18.9954 29.3333 20C29.3333 22.2 27.5333 24 25.3333 24ZM17.9333 13.3333H14.0667V17.3333H10.6667L16 22.6667L21.3333 17.3333H17.9333V13.3333Z" fill="#9CA3AF"/>
</svg>
